<svg width="302" height="67" viewBox="0 0 302 67" fill="none" xmlns="http://www.w3.org/2000/svg">
<path d="M288.377 64H302L270.623 22H257L288.377 64Z" fill="#FF4D5E"/>
<path d="M32.2758 4.39648C41.5916 4.39648 50.4369 6.87574 55.9887 10.618V26.8502C48.0373 19.7866 39.3803 17.8219 33.2168 17.8219C22.3484 17.8219 15.3381 24.7919 15.3381 35.2703C15.3381 45.6552 22.3484 52.8123 33.2168 52.8123C39.3803 52.8123 48.0373 50.8476 55.9887 43.784V60.0162C50.4369 63.7585 41.5916 66.2377 32.2758 66.2377C12.6563 66.2377 0 52.4381 0 35.2703C0 18.1026 12.6563 4.39648 32.2758 4.39648Z" fill="white"/>
<path d="M101.579 65.7229L90.6168 65.8632L90.3816 62.9162C88.1702 64.4599 84.4534 66.2375 78.5722 66.2375C68.9741 66.2375 63.2341 59.8756 63.2341 53.0459C63.2341 46.0759 67.845 39.3398 82.4773 39.3398C84.1711 39.3398 85.4885 39.4334 87.4645 39.5737V38.6381C87.4645 35.504 85.2532 33.7264 81.3952 33.7264C76.8784 33.7264 70.1033 35.083 64.6926 37.5622L66.6688 25.3998C70.1975 24.1368 75.6552 22.5931 83.3713 22.5931C94.569 22.5931 101.579 27.5048 101.579 36.8605V65.7229ZM87.4645 54.075V47.9471C86.5235 47.8535 85.3002 47.7132 83.2771 47.7132C78.7604 47.7132 77.3019 50.0989 77.3019 52.2975C77.3019 54.4025 78.9957 56.2736 81.7716 56.2736C83.9358 56.2736 85.7237 55.6187 87.4645 54.075Z" fill="white"/>
<path d="M124.681 65.068H110.566V23.5286L121.575 23.2012L121.858 26.2418C124.681 24.4642 129.386 22.5931 134.514 22.5931C140.066 22.5931 144.347 24.5578 146.935 27.3645C151.311 24.1368 155.498 22.5931 160.956 22.5931C171.495 22.5931 177.235 29.1421 177.235 37.2348V65.068H163.12V40.7432C163.12 37.4219 161.426 34.6152 157.051 34.6152C154.98 34.6152 153.099 35.0362 150.981 36.2992V65.068H136.866V40.7432C136.866 37.4219 135.173 34.6152 130.797 34.6152C128.727 34.6152 126.845 35.0362 124.728 36.2992L124.681 65.068Z" fill="white"/>
<path d="M228 43.125C228 55.6875 219.998 66 205.735 66C199.145 66 183 65.625 183 65.625V0.187497L197.121 0V24C199.381 22.7812 202.77 21.5625 207.477 21.5625C219.668 21.5625 228 29.8125 228 43.125ZM197.216 52.1719C198.863 53.3906 201.828 54.2344 203.9 54.2344C210.16 54.2344 213.22 49.9219 213.22 43.8281C213.22 37.7813 210.16 33.4219 203.9 33.4219C201.828 33.4219 198.863 34.3125 197.216 35.4844V52.1719Z" fill="white"/>
<path d="M251 64H236V22H251V64Z" fill="white"/>
<path d="M288.377 64H302L270.623 22H257L288.377 64Z" fill="url(#paint0_linear)"/>
<path d="M266.77 64.8359L265.97 63.76L265.123 64.9295H266.675L266.77 64.8359Z" fill="#FF4D5E"/>
<path d="M264.841 62.2627L263.994 61.0933L263.1 62.2627L263.9 63.3386L264.841 62.2627Z" fill="#FF4D5E"/>
<path d="M267.663 61.3749L266.816 62.6379L267.663 63.8074L268.651 62.6847L267.663 61.3749Z" fill="#FF4D5E"/>
<path d="M271.286 56.4163L270.062 58.0535L271.286 59.6908L272.603 58.2406L271.286 56.4163Z" fill="#FF4D5E"/>
<path d="M272.98 54.0298L271.663 55.8542L273.075 57.7253L274.533 56.0413L272.98 54.0298Z" fill="#FF4D5E"/>
<path d="M269.545 58.8014L268.369 60.4386L269.404 61.842L270.674 60.3919L269.545 58.8014Z" fill="#FF4D5E"/>
<path d="M263.993 58.8476L264.934 57.7249L263.899 56.2748L263.005 57.491L263.993 58.8476Z" fill="#FF4D5E"/>
<path d="M267.521 54.6379L268.792 53.0942L267.474 51.3166L267.427 51.4102L266.298 52.9538L267.521 54.6379Z" fill="#FF4D5E"/>
<path d="M271.239 50.8957L272.885 53.141L274.438 51.3635L272.603 48.931L271.239 50.8957Z" fill="#FF4D5E"/>
<path d="M274.108 46.7334L272.508 44.5815L271.096 46.4527L272.602 48.5109L274.108 46.7334Z" fill="#FF4D5E"/>
<path d="M262.159 58.6144L261.266 59.7838L262.206 61.0469L263.1 59.9242L262.159 58.6144Z" fill="#FF4D5E"/>
<path d="M267.522 56.0878L266.345 57.725L267.475 59.2687L268.792 57.7718L267.522 56.0878Z" fill="#FF4D5E"/>
<path d="M265.734 61.2336L266.722 60.111L265.687 58.6608L264.793 59.9238L265.734 61.2336Z" fill="#FF4D5E"/>
<path d="M260.464 63.1058L261.123 62.3105L260.276 61.1879L259.664 62.0299L260.464 63.1058Z" fill="#FF4D5E"/>
<path d="M264.557 55.339L265.687 56.8359L266.957 55.2922L265.734 53.7017L264.557 55.339Z" fill="#FF4D5E"/>
<path d="M274.674 51.6906L273.262 53.6553L274.815 55.7136L276.368 53.9828L274.674 51.6906Z" fill="#FF4D5E"/>
<path d="M274.816 51.5028L276.509 53.795L278.015 52.0642L276.18 49.5849L274.816 51.5028Z" fill="#FF4D5E"/>
<path d="M278.109 52.1579L276.745 54.0758L277.827 55.5727L279.238 53.7016L278.109 52.1579Z" fill="#FF4D5E"/>
<path d="M276.604 54.3109L275.192 56.2288L276.274 57.679L277.686 55.7611L276.604 54.3109Z" fill="#FF4D5E"/>
<path d="M272.745 48.744L274.58 51.2233L276.085 49.4925L274.156 46.8261L272.745 48.744Z" fill="#FF4D5E"/>
<path d="M272.462 48.6979L270.957 46.6864L269.498 48.6043L270.957 50.5222L272.462 48.6979Z" fill="#FF4D5E"/>
<path d="M301.962 23.2031H288.459L272.509 44.5341L274.156 46.686L274.767 45.9375L274.156 46.7795L276.179 49.4459L277.026 48.4635L276.226 49.5395L278.061 52.0187L278.673 51.3638L278.155 52.1123L279.284 53.656L301.962 23.2031Z" fill="#FF4D5E"/>
<path d="M270.674 50.8489L269.262 48.931L267.898 50.7553L269.262 52.5797L270.674 50.8489Z" fill="#FF4D5E"/>
<path d="M269.357 57.1166L270.674 55.6196L269.216 53.7017L268.04 55.339L269.357 57.1166Z" fill="#FF4D5E"/>
<path d="M259.147 64.696L258.442 63.7136L257.877 64.4621L258.206 64.9299H258.959L259.147 64.696Z" fill="#FF4D5E"/>
<path d="M262.817 64.5564L262.111 63.6676L261.5 64.5096L261.782 64.9306H262.488L262.817 64.5564Z" fill="#FF4D5E"/>
<path d="M271.145 55.1064L272.604 53.4692L270.957 51.2706L269.639 53.0949L271.145 55.1064Z" fill="#FF4D5E"/>
<path d="M273.215 59.0349L272.038 60.7189L273.026 62.0287L274.203 60.3914L273.215 59.0349Z" fill="#FF4D5E"/>
<path d="M269.64 64.0408L269.029 64.9296H270.299L269.64 64.0408Z" fill="#FF4D5E"/>
<path d="M274.908 56.6501L273.638 58.4744L274.626 59.831L275.991 58.0534L274.908 56.6501Z" fill="#FF4D5E"/>
<path d="M271.522 61.4673L270.346 63.1045L271.287 64.3675L272.463 62.7771L271.522 61.4673Z" fill="#FF4D5E"/>
<defs>
<linearGradient id="paint0_linear" x1="262.142" y1="18.402" x2="296.463" y2="67.817" gradientUnits="userSpaceOnUse">
<stop offset="0.257" stop-color="#FF4D5E"/>
<stop offset="0.2894" stop-color="#FB4C5D"/>
<stop offset="0.3208" stop-color="#EF4858"/>
<stop offset="0.3518" stop-color="#DC4250"/>
<stop offset="0.3826" stop-color="#C13945"/>
<stop offset="0.4131" stop-color="#9D2E37"/>
<stop offset="0.4435" stop-color="#722025"/>
<stop offset="0.4733" stop-color="#401011"/>
<stop offset="0.485" stop-color="#2A0908"/>
<stop offset="0.5297" stop-color="#6A1D22"/>
<stop offset="0.5727" stop-color="#9F2E37"/>
<stop offset="0.6125" stop-color="#C83C48"/>
<stop offset="0.6483" stop-color="#E64554"/>
<stop offset="0.679" stop-color="#F94B5B"/>
<stop offset="0.701" stop-color="#FF4D5E"/>
</linearGradient>
</defs>
</svg>
