<?xml version="1.0" encoding="utf-8"?>
<!-- Generator: Adobe Illustrator 23.0.0, SVG Export Plug-In . SVG Version: 6.00 Build 0)  -->
<svg width="137" height="37" version="1.1" id="Capa_1" xmlns="http://www.w3.org/2000/svg" xmlns:xlink="http://www.w3.org/1999/xlink" x="0px" y="0px"
	 viewBox="0 0 2933 669.32" style="enable-background:new 0 0 2933 669.32;" xml:space="preserve">
<style type="text/css">
	.st0{fill:#FFC700;}
	.st1{fill:#022C43;}
</style>
<g>
	<path id="XMLID_64_" class="st0" d="M393.77,409.53c0-26.77-5.98-52.14-16.65-74.87c10.67-22.74,16.65-48.09,16.65-74.85
		c0-83.22-57.65-152.98-135.22-171.54v-0.04c0-22.75-18.47-41.17-41.22-41.17c-22.72,0-41.14,18.43-41.14,41.17v0.05
		c-77.56,18.55-135.24,88.3-135.24,171.53c0,26.76,6.01,52.12,16.66,74.85c-10.66,22.72-16.65,48.1-16.65,74.87
		c0,83.24,57.69,152.95,135.28,171.5v0.07c0,22.72,18.39,41.17,41.1,41.17c22.76,0,41.21-18.44,41.21-41.17v-0.07
		C336.12,562.48,393.77,492.77,393.77,409.53 M217.34,518.54c-60.19,0-109.01-48.82-109.01-109.01c0-3.59,0.17-7.14,0.52-10.62
		c21.3,16.62,46.53,28.45,73.98,33.91c7.49,11.05,20.15,18.31,34.5,18.31c14.44,0,27.06-7.27,34.53-18.31
		c4.53-6.68,7.15-14.66,7.15-23.3c0-20.46-14.75-37.47-34.2-40.99c-2.4-0.43-4.92-0.67-7.48-0.67c-2.48,0-5,0.24-7.41,0.67
		c-28.27-1.9-53.5-14.54-71.76-33.87c-16.21-17.12-26.94-39.45-29.32-64.23c-0.35-3.5-0.56-7.03-0.56-10.62
		c0-60.22,48.86-109.02,109.05-109.02c60.26,0,109.05,48.8,109.05,109.02c0,3.59-0.2,7.12-0.52,10.62
		c-21.31-16.65-46.49-28.46-73.95-33.93c-7.51-11.07-20.13-18.33-34.57-18.33c-14.36,0-26.97,7.26-34.46,18.33
		c-4.52,6.66-7.14,14.66-7.14,23.3c0,20.44,14.76,37.44,34.2,40.95c2.41,0.45,4.93,0.7,7.41,0.7c2.56,0,5.08-0.25,7.48-0.7
		c28.22,1.94,53.5,14.59,71.81,33.91c16.11,17.1,26.86,39.42,29.24,64.25c0.36,3.47,0.58,7.03,0.58,10.62
		C326.44,469.72,277.59,518.54,217.34,518.54"/>
	<g>
		<path id="XMLID_63_" class="st0" d="M606.73,204.07l68.53-10.58L658.49,262h73.34l-13.2,53.91h-72.94l-19.49,81.32
			c-1.75,6.75-2.87,13.11-3.32,19.01c-0.43,5.85,0.26,10.94,2.24,15.24c1.91,4.26,5.21,7.56,9.9,9.94
			c4.73,2.36,11.22,3.53,19.45,3.53c7.13,0,13.96-0.64,20.58-2c6.68-1.28,13.28-3.13,20.11-5.53l4.85,50.38
			c-8.83,3.28-18.41,6.04-28.71,8.45c-10.3,2.32-22.54,3.47-36.65,3.47c-20.37,0-36.12-2.98-47.35-9.04
			c-11.21-6.06-19.15-14.32-23.88-24.75c-4.7-10.45-6.75-22.45-6.13-36.01c0.59-13.56,2.64-27.88,6.13-42.86L606.73,204.07z"/>
		<path id="XMLID_62_" class="st0" d="M975.34,262l-31.35,132.16c-4.19,16.75-5.3,33.63-3.58,50.57
			c1.79,16.98,5.21,32.05,10.2,45.31l-58.76,8.38c-3.26-6.45-6.38-13.68-9.28-21.64c-8.22,6.47-17.53,11.94-27.88,16.35
			c-10.3,4.41-21.77,6.6-34.39,6.6c-17.49,0-31.54-3.13-42.29-9.47c-10.75-6.34-18.79-14.71-24.05-25.16
			c-5.32-10.49-8.22-22.48-8.58-36.07c-0.47-13.54,1.04-27.43,4.58-41.55L780.03,262h65.83l-29.6,124.63
			c-1.53,6.47-2.72,13.09-3.75,19.88c-1.04,6.79-1.13,13.05-0.23,18.79c0.87,5.73,3.11,10.45,6.85,14.15
			c3.64,3.68,9.49,5.51,17.45,5.51c6.75,0,13.03-1.28,18.77-3.75c5.79-2.49,11.88-6.81,18.37-13.03c0.62-7.36,1.51-15.07,2.85-23.2
			c1.4-8.11,2.77-15.58,4.24-22.33L909.5,262H975.34z"/>
		<path id="XMLID_61_" class="st1" d="M1006.27,401.61c0-19.98,3.24-38.86,9.73-56.5c6.47-17.71,15.77-33.18,27.84-46.43
			c12.11-13.27,26.75-23.73,44.01-31.39c17.22-7.63,36.42-11.5,57.66-11.5c13.3,0,25.13,1.26,35.56,3.78
			c10.49,2.46,19.96,5.78,28.5,9.93l-22.52,51.24c-5.9-2.37-11.96-4.46-18.37-6.41c-6.28-1.88-14.02-2.84-23.17-2.84
			c-22.11,0-39.52,7.46-52.16,22.31c-12.67,14.85-18.99,35.13-18.99,60.77c0,15.04,3.23,27.18,9.72,36.46
			c6.54,9.28,18.43,13.92,35.8,13.92c8.56,0,16.81-0.85,24.73-2.68c7.96-1.77,15.05-3.96,21.24-6.57l4.85,52.52
			c-8.21,3.28-17.3,6.15-27.18,8.66c-9.92,2.51-21.86,3.77-36.01,3.77c-18.26,0-33.79-2.66-46.42-8
			c-12.67-5.28-23.07-12.43-31.33-21.45c-8.24-8.98-14.22-19.5-17.92-31.54C1008.16,427.56,1006.27,414.93,1006.27,401.61"/>
		<path id="XMLID_58_" class="st1" d="M1418.67,394.14c-4.05,16.77-5.28,33.65-3.53,50.59c1.74,16.98,5.09,32.05,10.11,45.31
			l-58.74,8.41c-1.81-3.57-3.38-6.94-4.87-10.22c-1.45-3.19-2.98-6.87-4.45-10.98c-8.24,6.77-17.37,12.32-27.41,16.75
			c-10.04,4.45-21.15,6.66-33.56,6.66c-14.68,0-27.37-2.58-37.78-7.75c-10.49-5.13-19.03-12.06-25.63-20.77
			c-6.66-8.68-11.47-18.84-14.32-30.46c-2.98-11.62-4.49-24.14-4.49-37.35c0-20.35,3.62-39.5,10.88-57.47
			c7.17-17.98,17.22-33.66,30.03-47.08c12.81-13.39,27.88-23.92,45.29-31.6c17.37-7.65,36.28-11.51,56.59-11.51
			c2.62,0,7.3,0.18,13.86,0.45c6.7,0.29,14.28,0.93,22.8,1.96c8.55,1.09,17.51,2.75,26.99,5.1c9.41,2.36,18.35,5.6,26.92,9.73
			L1418.67,394.14z M1372.65,312.8c-3.79-0.57-7.24-1.01-10.32-1.3c-3.09-0.33-6.79-0.49-11.28-0.49c-10.04,0-19.39,2.56-28.07,7.54
			c-8.73,4.98-16.28,11.56-22.77,19.68c-6.45,8.1-11.58,17.45-15.28,28.07c-3.64,10.6-5.49,21.65-5.49,33.16
			c0,14.13,2.36,25.35,7.04,33.58c4.72,8.24,13.45,12.37,26.11,12.37c6.83,0,12.87-1.3,18.34-3.98c5.41-2.66,11.28-7.07,17.45-13.26
			c0.59-7.39,1.55-15.09,2.92-23.2c1.32-8.13,2.66-15.58,4.24-22.33L1372.65,312.8z"/>
		<path id="XMLID_57_" class="st1" d="M1518.54,272.6c5.07-1.47,10.36-3.19,16.17-5.1c5.73-1.9,12.2-3.67,19.41-5.33
			c7.26-1.58,15.33-2.9,24.33-3.97c8.94-1.01,19.41-1.53,31.18-1.53c14.13,0,25.82,1.75,35.14,5.33
			c9.23,3.51,17.73,8.83,25.37,15.87c10.94-6.18,21.77-11.28,32.58-15.26c10.7-3.94,23.28-5.94,37.69-5.94
			c13.85,0,25.75,1.85,35.58,5.5c9.85,3.69,18.03,8.99,24.58,15.96c6.47,6.93,11.13,15.19,14.11,24.75c2.96,9.56,4.4,20.05,4.4,31.6
			c0,5.3-0.34,10.91-1.06,16.76c-0.76,5.9-1.85,11.81-3.34,17.69l-30.05,125.51h-65.85l29.18-122.84c0.83-4.15,1.81-8.79,2.89-13.96
			c0.96-5.13,1.47-10.25,1.47-15.25c0-8.23-1.9-15.36-5.73-21.41c-3.79-6.04-11.28-9.07-22.52-9.07c-6.19,0-12.03,1.11-17.64,3.31
			c-5.62,2.22-10.56,4.5-15.07,6.81c0.62,2.39,0.91,4.59,0.91,6.69v5.75c0,5.3-0.34,10.91-1.09,16.76
			c-0.79,5.9-1.83,11.81-3.38,17.69l-29.97,125.51h-65.91l29.22-122.84c0.85-4.15,1.79-8.79,2.87-13.96
			c0.98-5.13,1.57-10.25,1.57-15.25c0-8.23-1.94-15.36-5.79-21.41c-3.83-6.04-11.36-9.07-22.5-9.07c-4.79,0-8.73,0.21-11.96,0.67
			c-3.3,0.44-7.07,1.11-11.47,1.95l-42.86,179.91h-65.87L1518.54,272.6z"/>
		<path id="XMLID_54_" class="st1" d="M1997.72,257.16c14.09,0,26.28,2.45,36.61,7.47c10.3,5,18.84,11.76,25.65,20.32
			c6.75,8.55,11.77,18.55,15.05,30.05c3.26,11.5,4.83,23.91,4.83,37.16c0,20.32-3.79,39.52-11.26,57.68
			c-7.51,18.07-17.73,33.9-30.71,47.27c-13.02,13.39-28.33,24.01-45.97,31.82c-17.68,7.79-36.82,11.71-57.51,11.71
			c-2.6,0-7.26-0.09-13.88-0.25c-6.64-0.15-14.19-0.79-22.75-2c-8.54-1.17-17.65-2.92-27.16-5.28c-9.66-2.36-18.67-5.62-27.26-9.73
			l76.45-321.31l68.59-10.59l-27.45,114.01c5.92-2.67,11.81-4.7,17.67-6.19C1984.57,257.85,1990.85,257.16,1997.72,257.16
			 M1940.17,446.27c10.36,0,20.09-2.49,29.2-7.49c9.06-5.02,17-11.75,23.63-20.11c6.7-8.39,11.89-17.92,15.69-28.54
			c3.85-10.58,5.77-21.64,5.77-33.12c0-14.15-2.38-25.23-7.09-33.16c-4.73-7.94-13.41-11.93-26.07-11.93
			c-4.13,0-9.49,0.77-16.13,2.23c-6.64,1.46-12.56,4.53-17.92,9.25l-29.14,121.12c1.7,0.3,3.3,0.6,4.62,0.89
			c1.32,0.3,2.75,0.49,4.23,0.68c1.45,0.09,3.19,0.19,5.28,0.19H1940.17z"/>
		<path id="XMLID_51_" class="st1" d="M2167.43,494.45h-65.47L2157.22,262h65.83L2167.43,494.45z M2199.25,233.71
			c-9.17,0-17.41-2.73-24.81-8.19c-7.37-5.43-11.02-13.76-11.02-25c0-6.17,1.19-11.97,3.77-17.44c2.43-5.44,5.72-10.16,9.88-14.14
			c4.17-3.99,8.89-7.14,14.32-9.49c5.49-2.37,11.36-3.56,17.58-3.56c9.07,0,17.3,2.74,24.69,8.17c7.34,5.5,11.09,13.82,11.09,24.97
			c0,6.18-1.3,12.05-3.79,17.46c-2.55,5.5-5.83,10.16-9.96,14.15c-4.13,3.98-8.9,7.14-14.37,9.51
			C2211.19,232.5,2205.42,233.71,2199.25,233.71"/>
		<path id="XMLID_50_" class="st1" d="M2307.07,447.6c14.96,0,25.33-2.09,30.88-6.4c5.62-4.28,8.39-8.89,8.39-13.9
			c0-3.24-0.51-6.04-1.55-8.39c-1.02-2.38-2.68-4.6-5.02-6.66c-2.4-2.06-5.62-4.21-9.72-6.41c-4.19-2.23-9.49-4.77-15.96-7.7
			c-7.34-3.28-14.34-6.71-20.81-10.41c-6.45-3.7-12.11-8.11-17.03-13.28c-4.79-5.13-8.6-11.04-11.41-17.66
			c-2.85-6.63-4.21-14.52-4.21-23.64c0-23.89,8.73-42.76,26.31-56.56c17.5-13.86,43.1-20.79,76.64-20.79
			c15.9,0,30.09,1.76,42.42,5.26c12.36,3.56,22.41,7.39,30.03,11.54l-22.47,49.05c-6.22-3.28-14.16-6.36-23.9-9.28
			c-9.73-2.95-19.32-4.42-28.69-4.42c-4.15,0-8.22,0.22-12.24,0.67c-3.96,0.4-7.66,1.39-11.03,2.88c-3.36,1.47-6.11,3.51-8.11,6.15
			c-2.09,2.7-3.13,6.21-3.13,10.61c0,5.91,2.24,10.35,6.79,13.29c4.6,2.95,11.07,6.48,19.28,10.62
			c11.49,5.56,21.11,10.73,28.77,15.45c7.64,4.72,13.79,9.73,18.28,14.98c4.62,5.36,7.88,11.38,9.98,18.17
			c2.06,6.77,3.09,14.73,3.09,23.84c0,9.45-1.98,18.73-5.96,27.86c-4.02,9.13-10.24,17.24-18.75,24.33
			c-8.53,7.04-19.51,12.83-32.71,17.2c-13.26,4.41-29.18,6.66-47.72,6.66c-11.52,0-21.9-0.74-31.25-2.24
			c-9.24-1.47-17.39-3.28-24.47-5.51c-7.09-2.21-13.05-4.49-17.92-6.85c-4.87-2.34-8.58-4.25-11.24-5.75l22.49-50.36
			c5.04,2.94,12.86,6.62,23.47,11.04C2279.15,445.41,2292.02,447.6,2307.07,447.6"/>
		<path id="XMLID_49_" class="st1" d="M2512.55,204.07l68.49-10.58L2564.25,262h73.38l-13.24,53.91h-72.96L2532,397.23
			c-1.77,6.75-2.87,13.11-3.32,19.01c-0.42,5.85,0.28,10.94,2.21,15.24c1.94,4.26,5.26,7.56,9.92,9.94
			c4.73,2.36,11.21,3.53,19.49,3.53c7.02,0,13.9-0.64,20.52-2c6.66-1.28,13.3-3.13,20.13-5.53l4.85,50.38
			c-8.86,3.28-18.41,6.04-28.73,8.45c-10.32,2.32-22.52,3.47-36.63,3.47c-20.35,0-36.14-2.98-47.35-9.04
			c-11.21-6.06-19.15-14.32-23.88-24.75c-4.68-10.45-6.77-22.45-6.15-36.01c0.57-13.56,2.66-27.88,6.15-42.86L2512.55,204.07z"/>
		<path id="XMLID_46_" class="st1" d="M2846.71,394.14c-4.11,16.77-5.34,33.65-3.55,50.59c1.77,16.98,5.11,32.05,10.09,45.31
			l-58.7,8.41c-1.75-3.57-3.42-6.94-4.87-10.22c-1.45-3.19-2.96-6.87-4.45-10.98c-8.21,6.77-17.34,12.32-27.35,16.75
			c-10.04,4.45-21.26,6.66-33.65,6.66c-14.71,0-27.28-2.58-37.8-7.75c-10.43-5.13-18.94-12.06-25.63-20.77
			c-6.62-8.68-11.36-18.84-14.34-30.46c-2.89-11.62-4.38-24.14-4.38-37.35c0-20.35,3.54-39.5,10.75-57.47
			c7.24-17.98,17.3-33.66,30.13-47.08c12.81-13.39,27.92-23.92,45.33-31.6c17.36-7.65,36.18-11.51,56.5-11.51
			c2.66,0,7.3,0.18,13.94,0.45c6.66,0.29,14.26,0.93,22.77,1.96c8.51,1.09,17.53,2.75,26.92,5.1c9.45,2.36,18.43,5.6,26.99,9.73
			L2846.71,394.14z M2800.7,312.8c-3.81-0.57-7.26-1.01-10.32-1.3c-3.11-0.33-6.89-0.49-11.34-0.49c-9.98,0-19.34,2.56-28.03,7.54
			c-8.75,4.98-16.32,11.56-22.73,19.68c-6.56,8.1-11.58,17.45-15.33,28.07c-3.62,10.6-5.49,21.65-5.49,33.16
			c0,14.13,2.38,25.35,7.06,33.58c4.72,8.24,13.41,12.37,26.11,12.37c6.72,0,12.86-1.3,18.3-3.98c5.45-2.66,11.36-7.07,17.47-13.26
			c0.64-7.39,1.58-15.09,2.85-23.2c1.38-8.13,2.75-15.58,4.26-22.33L2800.7,312.8z"/>
	</g>
</g>
</svg>
